<mxfile host="app.diagrams.net" modified="2023-05-19T08:47:29.037Z" agent="Mozilla/5.0 (Windows NT 10.0; Win64; x64) AppleWebKit/537.36 (KHTML, like Gecko) Chrome/113.0.0.0 Safari/537.36" etag="9sqqrN7CcTYg1y0axGf4" version="21.3.2" type="device" pages="3">
  <diagram name="login-MOVIL" id="2E1pkTBdmo3KFD1RSdIt">
    <mxGraphModel dx="3187" dy="1769" grid="1" gridSize="10" guides="1" tooltips="1" connect="1" arrows="1" fold="1" page="1" pageScale="1" pageWidth="660" pageHeight="1169" math="0" shadow="0">
      <root>
        <mxCell id="0" />
        <mxCell id="1" parent="0" />
        <mxCell id="2cLukVwamAZX7UQNR1Tm-1" value="" style="rounded=0;whiteSpace=wrap;html=1;" vertex="1" parent="1">
          <mxGeometry width="660" height="90" as="geometry" />
        </mxCell>
        <mxCell id="2cLukVwamAZX7UQNR1Tm-2" value="" style="rounded=0;whiteSpace=wrap;html=1;" vertex="1" parent="1">
          <mxGeometry y="90" width="660" height="870" as="geometry" />
        </mxCell>
        <mxCell id="2cLukVwamAZX7UQNR1Tm-3" value="" style="rounded=0;whiteSpace=wrap;html=1;" vertex="1" parent="1">
          <mxGeometry y="960" width="660" height="209" as="geometry" />
        </mxCell>
        <mxCell id="2cLukVwamAZX7UQNR1Tm-4" value="LOGO" style="rounded=0;whiteSpace=wrap;html=1;" vertex="1" parent="1">
          <mxGeometry x="20" y="15" width="120" height="60" as="geometry" />
        </mxCell>
        <mxCell id="2cLukVwamAZX7UQNR1Tm-5" value="MENU HAMBURGUESA" style="rounded=0;whiteSpace=wrap;html=1;" vertex="1" parent="1">
          <mxGeometry x="510" y="15" width="110" height="60" as="geometry" />
        </mxCell>
        <mxCell id="2cLukVwamAZX7UQNR1Tm-6" value="EMAIL" style="rounded=0;whiteSpace=wrap;html=1;" vertex="1" parent="1">
          <mxGeometry x="210" y="390" width="240" height="60" as="geometry" />
        </mxCell>
        <mxCell id="2cLukVwamAZX7UQNR1Tm-7" value="CONTRASEÑA" style="rounded=0;whiteSpace=wrap;html=1;glass=0;" vertex="1" parent="1">
          <mxGeometry x="210" y="480" width="240" height="60" as="geometry" />
        </mxCell>
        <mxCell id="2cLukVwamAZX7UQNR1Tm-8" value="INICIAR SESIÓN" style="rounded=1;whiteSpace=wrap;html=1;" vertex="1" parent="1">
          <mxGeometry x="235" y="570" width="190" height="60" as="geometry" />
        </mxCell>
        <mxCell id="2cLukVwamAZX7UQNR1Tm-9" value="SECCIÓN 1" style="rounded=0;whiteSpace=wrap;html=1;" vertex="1" parent="1">
          <mxGeometry x="30" y="980" width="120" height="160" as="geometry" />
        </mxCell>
        <mxCell id="2cLukVwamAZX7UQNR1Tm-10" value="SECCIÓN 2" style="rounded=0;whiteSpace=wrap;html=1;" vertex="1" parent="1">
          <mxGeometry x="210" y="980" width="120" height="160" as="geometry" />
        </mxCell>
        <mxCell id="2cLukVwamAZX7UQNR1Tm-11" value="INFO EXTRA" style="rounded=0;whiteSpace=wrap;html=1;" vertex="1" parent="1">
          <mxGeometry x="350" y="1080" width="270" height="60" as="geometry" />
        </mxCell>
        <mxCell id="2cLukVwamAZX7UQNR1Tm-13" value="TÍTULO LOGIN&amp;nbsp;USUARIOS" style="rounded=1;whiteSpace=wrap;html=1;" vertex="1" parent="1">
          <mxGeometry x="95" y="240" width="470" height="60" as="geometry" />
        </mxCell>
        <mxCell id="2cLukVwamAZX7UQNR1Tm-17" value="NOMBRE DE EMPRESA" style="rounded=0;whiteSpace=wrap;html=1;" vertex="1" parent="1">
          <mxGeometry x="170" y="15" width="180" height="60" as="geometry" />
        </mxCell>
      </root>
    </mxGraphModel>
  </diagram>
  <diagram id="lb8qCZto_qpODDdU6obw" name="login-TABLET">
    <mxGraphModel dx="2206" dy="1225" grid="1" gridSize="10" guides="1" tooltips="1" connect="1" arrows="1" fold="1" page="1" pageScale="1" pageWidth="660" pageHeight="1169" math="0" shadow="0">
      <root>
        <mxCell id="0" />
        <mxCell id="1" parent="0" />
        <mxCell id="lFLcR_11LffVP4b1ctVX-14" value="" style="rounded=0;whiteSpace=wrap;html=1;" vertex="1" parent="1">
          <mxGeometry width="850" height="90" as="geometry" />
        </mxCell>
        <mxCell id="lFLcR_11LffVP4b1ctVX-15" value="&lt;br&gt;" style="rounded=0;whiteSpace=wrap;html=1;" vertex="1" parent="1">
          <mxGeometry y="90" width="850" height="870" as="geometry" />
        </mxCell>
        <mxCell id="lFLcR_11LffVP4b1ctVX-16" value="" style="rounded=0;whiteSpace=wrap;html=1;" vertex="1" parent="1">
          <mxGeometry y="960" width="850" height="209" as="geometry" />
        </mxCell>
        <mxCell id="lFLcR_11LffVP4b1ctVX-17" value="LOGO" style="rounded=0;whiteSpace=wrap;html=1;" vertex="1" parent="1">
          <mxGeometry x="20" y="15" width="120" height="60" as="geometry" />
        </mxCell>
        <mxCell id="lFLcR_11LffVP4b1ctVX-18" value="MENU HAMBURGUESA" style="rounded=0;whiteSpace=wrap;html=1;" vertex="1" parent="1">
          <mxGeometry x="690" y="15" width="110" height="60" as="geometry" />
        </mxCell>
        <mxCell id="lFLcR_11LffVP4b1ctVX-22" value="SECCIÓN 1" style="rounded=0;whiteSpace=wrap;html=1;" vertex="1" parent="1">
          <mxGeometry x="30" y="980" width="170" height="160" as="geometry" />
        </mxCell>
        <mxCell id="lFLcR_11LffVP4b1ctVX-23" value="SECCIÓN 2" style="rounded=0;whiteSpace=wrap;html=1;" vertex="1" parent="1">
          <mxGeometry x="290" y="980" width="175" height="160" as="geometry" />
        </mxCell>
        <mxCell id="lFLcR_11LffVP4b1ctVX-24" value="INFO EXTRA" style="rounded=0;whiteSpace=wrap;html=1;" vertex="1" parent="1">
          <mxGeometry x="550" y="1080" width="270" height="60" as="geometry" />
        </mxCell>
        <mxCell id="lFLcR_11LffVP4b1ctVX-30" value="NOMBRE DE EMPRESA" style="rounded=0;whiteSpace=wrap;html=1;" vertex="1" parent="1">
          <mxGeometry x="170" y="15" width="180" height="60" as="geometry" />
        </mxCell>
        <mxCell id="qUi58cty0eVU1CXLfIVn-1" value="EMAIL" style="rounded=0;whiteSpace=wrap;html=1;" vertex="1" parent="1">
          <mxGeometry x="305" y="400" width="240" height="60" as="geometry" />
        </mxCell>
        <mxCell id="qUi58cty0eVU1CXLfIVn-2" value="CONTRASEÑA" style="rounded=0;whiteSpace=wrap;html=1;glass=0;" vertex="1" parent="1">
          <mxGeometry x="305" y="490" width="240" height="60" as="geometry" />
        </mxCell>
        <mxCell id="qUi58cty0eVU1CXLfIVn-3" value="INICIAR SESIÓN" style="rounded=1;whiteSpace=wrap;html=1;" vertex="1" parent="1">
          <mxGeometry x="330" y="580" width="190" height="60" as="geometry" />
        </mxCell>
        <mxCell id="qUi58cty0eVU1CXLfIVn-4" value="TÍTULO LOGIN USUARIOS" style="rounded=1;whiteSpace=wrap;html=1;" vertex="1" parent="1">
          <mxGeometry x="190" y="250" width="470" height="60" as="geometry" />
        </mxCell>
      </root>
    </mxGraphModel>
  </diagram>
  <diagram id="4isPEevXB65Ek4lwUBQs" name="login-ESCRITORIO">
    <mxGraphModel dx="2868" dy="1592" grid="1" gridSize="10" guides="1" tooltips="1" connect="1" arrows="1" fold="1" page="1" pageScale="1" pageWidth="660" pageHeight="1169" math="0" shadow="0">
      <root>
        <mxCell id="0" />
        <mxCell id="1" parent="0" />
        <mxCell id="wvvzJ39Q0MRmX-QnUtGw-1" value="" style="rounded=0;whiteSpace=wrap;html=1;" vertex="1" parent="1">
          <mxGeometry width="1580" height="90" as="geometry" />
        </mxCell>
        <mxCell id="wvvzJ39Q0MRmX-QnUtGw-2" value="" style="rounded=0;whiteSpace=wrap;html=1;" vertex="1" parent="1">
          <mxGeometry y="90" width="1580" height="870" as="geometry" />
        </mxCell>
        <mxCell id="wvvzJ39Q0MRmX-QnUtGw-3" value="" style="rounded=0;whiteSpace=wrap;html=1;" vertex="1" parent="1">
          <mxGeometry y="960" width="1580" height="209" as="geometry" />
        </mxCell>
        <mxCell id="wvvzJ39Q0MRmX-QnUtGw-4" value="LOGO" style="rounded=0;whiteSpace=wrap;html=1;" vertex="1" parent="1">
          <mxGeometry x="20" y="15" width="120" height="60" as="geometry" />
        </mxCell>
        <mxCell id="wvvzJ39Q0MRmX-QnUtGw-5" value="MENU" style="rounded=0;whiteSpace=wrap;html=1;" vertex="1" parent="1">
          <mxGeometry x="390" y="15" width="910" height="60" as="geometry" />
        </mxCell>
        <mxCell id="wvvzJ39Q0MRmX-QnUtGw-9" value="SECCIÓN 1" style="rounded=0;whiteSpace=wrap;html=1;" vertex="1" parent="1">
          <mxGeometry x="90" y="980" width="170" height="160" as="geometry" />
        </mxCell>
        <mxCell id="wvvzJ39Q0MRmX-QnUtGw-10" value="SECCIÓN 2" style="rounded=0;whiteSpace=wrap;html=1;" vertex="1" parent="1">
          <mxGeometry x="330" y="980" width="175" height="160" as="geometry" />
        </mxCell>
        <mxCell id="wvvzJ39Q0MRmX-QnUtGw-11" value="INFO EXTRA" style="rounded=0;whiteSpace=wrap;html=1;" vertex="1" parent="1">
          <mxGeometry x="1250" y="1060" width="270" height="70" as="geometry" />
        </mxCell>
        <mxCell id="wvvzJ39Q0MRmX-QnUtGw-17" value="NOMBRE DE EMPRESA" style="rounded=0;whiteSpace=wrap;html=1;" vertex="1" parent="1">
          <mxGeometry x="170" y="15" width="180" height="60" as="geometry" />
        </mxCell>
        <mxCell id="lJk4LNQ1pgIEPNwhJxly-1" value="EMAIL" style="rounded=0;whiteSpace=wrap;html=1;" vertex="1" parent="1">
          <mxGeometry x="637.5" y="350" width="335" height="70" as="geometry" />
        </mxCell>
        <mxCell id="lJk4LNQ1pgIEPNwhJxly-2" value="CONTRASEÑA" style="rounded=0;whiteSpace=wrap;html=1;glass=0;" vertex="1" parent="1">
          <mxGeometry x="637.5" y="460" width="335" height="70" as="geometry" />
        </mxCell>
        <mxCell id="lJk4LNQ1pgIEPNwhJxly-3" value="INICIAR SESIÓN" style="rounded=1;whiteSpace=wrap;html=1;" vertex="1" parent="1">
          <mxGeometry x="703.75" y="580" width="202.5" height="60" as="geometry" />
        </mxCell>
        <mxCell id="lJk4LNQ1pgIEPNwhJxly-4" value="TÍTULO LOGIN&amp;nbsp;USUARIOS" style="rounded=1;whiteSpace=wrap;html=1;" vertex="1" parent="1">
          <mxGeometry x="430" y="200" width="750" height="90" as="geometry" />
        </mxCell>
      </root>
    </mxGraphModel>
  </diagram>
</mxfile>
